<?xml version="1.0" standalone="no"?>
<!DOCTYPE svg PUBLIC "-//W3C//DTD SVG 1.1//EN" "http://www.w3.org/Graphics/SVG/1.1/DTD/svg11.dtd" >
<svg>
<metadata>
Created by FontForge 20090914 at Mon Feb 27 21:50:31 2017
 By www-data
przemyslaw hoffer
</metadata>
<defs>
<font id="basictitlefont" horiz-adv-x="833" >
  <font-face 
    font-family="basic title font"
    font-weight="100"
    font-stretch="condensed"
    units-per-em="1000"
    panose-1="0 0 0 0 0 0 0 0 0 0"
    ascent="750"
    descent="-250"
    x-height="729"
    cap-height="733"
    bbox="23 -94 541 909.003"
    underline-thickness="50"
    underline-position="-50"
    unicode-range="U+000D-U+20AC"
  />
<missing-glyph horiz-adv-x="500" 
 />
    <glyph glyph-name=".notdef" horiz-adv-x="500" 
 />
    <glyph glyph-name=".null" horiz-adv-x="0" 
 />
    <glyph glyph-name=".null" horiz-adv-x="0" 
 />
    <glyph glyph-name="nonmarkingreturn" unicode="&#xd;" horiz-adv-x="500" 
 />
    <glyph glyph-name="space" unicode=" " horiz-adv-x="500" 
 />
    <glyph glyph-name="exclam" unicode="!" horiz-adv-x="248" 
d="M139 33v-28h-30v28h30zM112 86v647h11h11v-647h-11h-11z" />
    <glyph glyph-name="quotedbl" unicode="&#x22;" horiz-adv-x="282" 
d="M87 597v139h10h10v-139h-10h-10zM167 597v139h10h10v-139h-10h-10z" />
    <glyph glyph-name="numbersign" unicode="#" 
 />
    <glyph glyph-name="dollar" unicode="$" 
 />
    <glyph glyph-name="percent" unicode="%" 
 />
    <glyph glyph-name="ampersand" unicode="&#x26;" 
 />
    <glyph glyph-name="quotesingle" unicode="'" horiz-adv-x="149" 
d="M61 647v139h10h10v-139h-10h-10z" />
    <glyph glyph-name="parenleft" unicode="(" horiz-adv-x="304" 
 />
    <glyph glyph-name="parenright" unicode=")" horiz-adv-x="301" 
 />
    <glyph glyph-name="asterisk" unicode="*" horiz-adv-x="341" 
d="M315 600l-0.00488281 -11v-10h-126l64 -110h-1c-0.666992 0 -1.33398 -0.333008 -2.00098 -1s-1.66699 -1.33398 -3 -2.00098s-2.66602 -1.16699 -3.99902 -1.5s-2.66602 -1.16602 -3.99902 -2.49902l-4 -2l-1 -1l-63 109l-62 -110l-5 3
c-1.33301 0.666992 -2.16602 1.16699 -2.49902 1.5s-1.16602 0.833008 -2.49902 1.5l-10 6l63 109h-126v10v11h126l-62 111c0.666992 0 1.33398 0.333008 2.00098 1s1.5 1 2.5 1s2.5 0.666992 4.5 2c2 0.666992 4.33301 1.66699 7 3c0.666992 0.666992 1.33398 1 2.00098 1
l63 -108l62 110l10 -6l10 -6l-64 -109h126z" />
    <glyph glyph-name="plus" unicode="+" horiz-adv-x="489" 
d="M380 423v-10v-10h-131v-131h-10h-10v131h-132v10v10h132v132h10h10v-132h131z" />
    <glyph glyph-name="comma" unicode="," horiz-adv-x="192" 
d="M78 -46c-2.66699 0.666992 -4.66602 0.998047 -5.99902 0.998047l24 70c0 -0.666992 0.333008 -1 1 -1s1.16699 -0.166992 1.5 -0.5s1.16602 -0.5 2.49902 -0.5l7 -2l-25 -68c-1.33301 0.666992 -1.83301 0.833984 -1.5 0.500977s-1.16699 -0.166016 -4.5 0.500977h1z
" />
    <glyph glyph-name="hyphen" unicode="-" 
d="M520 420v-11v-10h-238v10v11h238z" />
    <glyph glyph-name="period" unicode="." horiz-adv-x="105" 
d="M63 28v-29h-29v29h29z" />
    <glyph glyph-name="slash" unicode="/" horiz-adv-x="294" 
d="M79 29h-1.99902c-0.666992 0 -1.5 0.166992 -2.5 0.5s-2.16699 0.5 -3.5 0.5h-2c-2.66699 0 -5.33398 0.666992 -8.00098 2l-2 1l135 668c0 -0.666992 0.666992 -1 2 -1s2.5 -0.166992 3.5 -0.5s2.5 -0.5 4.5 -0.5c2 -0.666992 4.66699 -1 8 -1
c1.33301 0 2 -0.333008 2 -1z" />
    <glyph glyph-name="zero" unicode="0" horiz-adv-x="453" 
d="M369 163v-16c0 -8.66699 -1.33301 -19.167 -4 -31.5s-6.83398 -25.5 -12.501 -39.5s-14.167 -27 -25.5 -39c-26 -27.333 -61.667 -41 -107 -41c-44.667 0 -79.667 13.667 -105 41c-11.333 12 -19.833 25.333 -25.5 40s-9.5 28.5 -11.5 41.5s-3 24.167 -3 33.5v17v410
c0 26.667 3.83301 50.5 11.5 71.5s19.834 38.833 36.501 53.5c13.333 12 28.333 21.167 45 27.5s34 9.5 52 9.5s35.5 -3 52.5 -9s32.167 -14.667 45.5 -26c34 -30 51 -72.333 51 -127v-416zM348 579c0 26 -3.83496 47.999 -11.502 65.999s-17.667 32.5 -30 43.5
s-26.166 19 -41.499 24s-30.333 7.5 -45 7.5c-15.333 0 -30.5 -2.83301 -45.5 -8.5s-28.167 -14.167 -39.5 -25.5s-20.5 -26 -27.5 -44s-10.5 -39 -10.5 -63v-411l-0.5 -12.5c-0.333008 -8.33301 0.5 -18.5 2.5 -30.5s5.33301 -24.667 10 -38s12 -25.333 22 -36
c20.667 -22.667 50.334 -34 89.001 -34c39.333 0 70 11.667 92 35c10 10.667 17.333 22.334 22 35.001s8 24.5 10 35.5s3 20.333 3 28v11.5z" />
    <glyph glyph-name="one" unicode="1" horiz-adv-x="412" 
d="M219 26l137 0.000976562v-9v-11h-299v11c0 1.33301 -0.166992 2.66602 -0.5 3.99902s-0.5 2.33301 -0.5 3v2h141l1 670l-126 -125l-14 15l145 146h15z" />
    <glyph glyph-name="two" unicode="2" horiz-adv-x="464" 
d="M76 3l0.00292969 9.99512c0 30 4.16699 59.167 12.5 87.5s21.166 57.5 38.499 87.5c15.333 26 32.166 51.167 50.499 75.5l56.5 71.5l57.5 70.5c16.333 20.333 30 39.5 41 57.5s19.333 36 25 54s8.5 38.333 8.5 61v1c0 6 -0.166992 12 -0.5 18s-1.16602 12 -2.49902 18
c-2 10.667 -5.33301 22 -10 34s-11.667 23 -21 33c-22 23.333 -53 35 -93 35c-41.333 0 -71.333 -11.333 -90 -34c-8.66699 -10 -14.834 -21.667 -18.501 -35s-6 -25.833 -7 -37.5s-1.33301 -21.667 -1 -30l0.5 -12.5h-21c0 0.666992 -0.333008 5.66699 -1 15
s-0.333984 20.333 0.999023 33s4.16602 26.167 8.49902 40.5s11.5 27.5 21.5 39.5c23.333 28 59 42 107 42c46.667 0 83 -14 109 -42c10.667 -11.333 18.834 -23.666 24.501 -36.999s9.66699 -25.666 12 -36.999s3.5 -21.166 3.5 -29.499v-15.5
c0 -24 -3.83301 -46.833 -11.5 -68.5s-18 -42.667 -31 -63s-27.833 -40.666 -44.5 -60.999l-51 -62.5l-54.5 -68.5c-17.667 -23 -33.667 -46.667 -48 -71s-26 -49.666 -35 -75.999s-14.167 -53.833 -15.5 -82.5l274 2v-23h-295z" />
    <glyph glyph-name="three" unicode="3" horiz-adv-x="434" 
d="M317 59c9.33301 10.667 16.5049 22.165 21.5049 34.498s8.83301 24.166 11.5 35.499c2.66699 12.667 4 25.334 4 38.001v78c0.666992 14 -0.333008 28 -3 42c-2 12 -5.5 24.5 -10.5 37.5s-12.167 25.167 -21.5 36.5c-20.667 22.667 -50.334 34 -89.001 34h-57v19h49
c15.333 0 30.666 2.5 45.999 7.5s29.166 13 41.499 24s22.5 25.167 30.5 42.5s12.333 38.333 13 63l1 31c0.666992 12.667 -0.333008 25 -3 37c-2 10.667 -5.5 21.834 -10.5 33.501s-12.167 22.834 -21.5 33.501c-22 23.333 -53 35 -93 35c-20.667 0 -38.334 -3 -53.001 -9
s-27 -14.667 -37 -26c-8.66699 -10 -15 -21.5 -19 -34.5s-6.5 -25.5 -7.5 -37.5s-1.33301 -22 -1 -30l0.5 -12h-20c0 0.666992 -0.333008 5.5 -1 14.5s-0.166992 20 1.5 33s4.66699 26.667 9 41s11.5 27.5 21.5 39.5c24 28 59.333 42 106 42c46 0 82.333 -14 109 -42
c10.667 -12 18.834 -24.5 24.501 -37.5s9.66699 -25.167 12 -36.5s3.5 -21 3.5 -29v-15l-1 -31c-1.33301 -28 -6.33301 -51.167 -15 -69.5s-22.334 -35.5 -41.001 -51.5c-6 -5.33301 -12.167 -9.5 -18.5 -12.5s-13.166 -5.83301 -20.499 -8.5
c11.333 -3.33301 21.666 -7.66602 30.999 -12.999s17.666 -12.333 24.999 -21c11.333 -12.667 19.833 -26.334 25.5 -41.001s9.83398 -28.667 12.501 -42c2.66699 -15.333 3.66699 -31 3 -47v-76c-0.666992 -15.333 -2.33398 -30.333 -5.00098 -45
c-2.66699 -12.667 -7 -26.334 -13 -41.001s-14.667 -27.667 -26 -39c-26.667 -28.667 -63 -43 -109 -43c-15.333 0 -32.833 2.16699 -52.5 6.5s-38.167 13.833 -55.5 28.5s-30 34.334 -38 59.001s-12 51 -12 79h21c0 -32 4.5 -58 13.5 -78s20.333 -35.5 34 -46.5
s28.5 -18.5 44.5 -22.5s31 -6 45 -6c40.667 0 72 12.667 94 38z" />
    <glyph glyph-name="four" unicode="4" horiz-adv-x="407" 
d="M306 698l-242 -419l240 -1zM315 4h-11v255h-267h-8h-6l277 474h26v-455h70v-19h-70v-255h-11z" />
    <glyph glyph-name="five" unicode="5" horiz-adv-x="466" 
d="M378 166c-0.666992 -2 -1.00195 -7.33496 -1.00195 -16.002s-1.16699 -19.167 -3.5 -31.5s-6.33301 -25.5 -12 -39.5s-14.167 -27 -25.5 -39c-26 -27.333 -61.667 -41 -107 -41c-44.667 0 -79.667 13.667 -105 41c-11.333 12 -19.833 25.333 -25.5 40
s-9.5 28.667 -11.5 42c-2.66699 15.333 -3.66699 31 -3 47h22v-13c0 -8 0.833008 -17.667 2.5 -29s4.83398 -23.666 9.50098 -36.999s12 -25.333 22 -36c20.667 -22.667 50.334 -34 89.001 -34c39.333 0 70 11.667 92 35c10 10.667 17.333 22.334 22 35.001s8 24.5 10 35.5
s3 20.333 3 28v11.5zM355.998 164.998l0.00195312 153.001c0 0.666992 0.166992 5.16699 0.5 13.5s-0.333984 18.166 -2.00098 29.499s-4.83398 23.5 -9.50098 36.5s-12 24.833 -22 35.5c-22 24 -51.667 36 -89 36c-30.667 0.666992 -57.667 1 -81 1h-63l1 251v11h281v-11
v-6h-259l-1 -226l122 -1c44.667 0 79.667 -13.667 105 -41c11.333 -12 19.833 -25.167 25.5 -39.5s9.5 -27.833 11.5 -40.5s2.83301 -23.5 2.5 -32.5s-0.5 -14.5 -0.5 -16.5v-152z" />
    <glyph glyph-name="six" unicode="6" horiz-adv-x="453" 
d="M373 163c-0.666992 -2 -0.999023 -7.33496 -0.999023 -16.002s-1.16699 -19.167 -3.5 -31.5s-6.33301 -25.5 -12 -39.5s-14.167 -27 -25.5 -39c-25.333 -27.333 -61 -41 -107 -41c-44 0 -79 13.667 -105 41c-11.333 12 -19.833 25.333 -25.5 40s-9.5 28.5 -11.5 41.5
s-3 24.167 -3 33.5v17v410c0 26.667 3.66699 52.334 11 77.001s19.666 44 36.999 58c13.333 10.667 28.333 17.834 45 21.501s34 5.5 52 5.5c8.66699 0 21.334 -0.833008 38.001 -2.5s33.167 -7.83398 49.5 -18.501s30.5 -27.5 42.5 -50.5s18 -55.833 18 -98.5h-21
c0.666992 38 -4.33301 67 -15 87s-23 34.667 -37 44s-28.167 14.666 -42.5 15.999s-25.166 2 -32.499 2c-15.333 0 -30.5 -1.66699 -45.5 -5s-28.167 -10.166 -39.5 -20.499s-20.5 -24.666 -27.5 -42.999s-10.5 -42.5 -10.5 -72.5v-168
c-0.666992 5.33301 1.66602 12 6.99902 20s10.333 14.667 15 20c25.333 27.333 61 41 107 41c44 0 79 -13.667 105 -41c11.333 -12 19.666 -25.167 24.999 -39.5s9 -27.833 11 -40.5s3 -23.5 3 -32.5v-16.5l-1 -159v0zM352.001 321.998v13.501
c0 8.33301 -0.833008 18.166 -2.5 29.499s-4.66699 23.5 -9 36.5s-11.5 24.833 -21.5 35.5c-20.667 22.667 -50.334 34 -89.001 34c-40 0 -70.667 -11.667 -92 -35c-13.333 -14.667 -22.833 -31.334 -28.5 -50.001s-8.5 -33.667 -8.5 -45v-173l-0.5 -12.5
c-0.333008 -8.33301 0.5 -18.5 2.5 -30.5s5.33301 -24.667 10 -38s12 -25.333 22 -36c20.667 -22.667 50.334 -34 89.001 -34c40 0 70.667 11.667 92 35c10 10.667 17.5 22.334 22.5 35.001s8.33301 24.5 10 35.5s2.5 20.333 2.5 28v11.5z" />
    <glyph glyph-name="seven" unicode="7" horiz-adv-x="403" 
d="M355 714h-296v8v11h323l-209 -723h-22z" />
    <glyph glyph-name="eight" unicode="8" horiz-adv-x="405" 
d="M57 242c0 14.667 1.33105 29.668 3.99805 45.001c2.66699 12.667 6.83398 26.334 12.501 41.001s14.167 28 25.5 40c15.333 16 32.666 27 51.999 33c-7.33301 3.33301 -14.5 7 -21.5 11s-13.167 9 -18.5 15c-9.33301 10 -16.166 20.833 -20.499 32.5s-7.5 22.667 -9.5 33
s-3 19.333 -3 27v13.5v65c0 11.333 1.33301 23 4 35c2 10 5.5 21 10.5 33s12.167 23.667 21.5 35c10.667 12 23.834 20.667 39.501 26s33.167 8 52.5 8s36.666 -2.83301 51.999 -8.5s28.333 -14.167 39 -25.5c9.33301 -10.667 16.5 -21.834 21.5 -33.501
s8.5 -22.834 10.5 -33.501c2.66699 -12 4 -24 4 -36v-65v-13c0 -7.33301 -0.833008 -16.166 -2.5 -26.499s-4.83398 -21.5 -9.50098 -33.5s-11.667 -23 -21 -33c-5.33301 -6 -11.5 -11 -18.5 -15s-14.167 -7.66699 -21.5 -11c20.667 -6 38.334 -17 53.001 -33
c11.333 -12 19.833 -25.333 25.5 -40s9.83398 -28.334 12.501 -41.001c2.66699 -15.333 4 -30.333 4 -45l1 -79c0.666992 -16 -0.333008 -31.667 -3 -47c-2 -13.333 -5.83301 -27.333 -11.5 -42s-14.167 -28 -25.5 -40c-12.667 -13.333 -28.5 -23.5 -47.5 -30.5
s-39.833 -10.5 -62.5 -10.5s-43.5 3.5 -62.5 10.5s-34.833 17.167 -47.5 30.5c-11.333 12 -19.833 25.333 -25.5 40s-9.5 28.667 -11.5 42c-2.66699 15.333 -3.66699 31 -3 47l1 79v0zM313.998 598.001c0 10.667 -1.00098 21.333 -3.00098 32
c-1.33301 9.33301 -4.16602 19.166 -8.49902 29.499s-10.5 20.166 -18.5 29.499c-18 18.667 -44 28 -78 28c-17.333 0 -32.5 -2.16699 -45.5 -6.5s-24.167 -11.5 -33.5 -21.5c-8 -9.33301 -14.167 -19.166 -18.5 -29.499s-7.16602 -20.166 -8.49902 -29.499
c-2.66699 -10.667 -3.66699 -21.334 -3 -32.001v-65c-0.666992 -11.333 0 -22.666 2 -33.999c1.33301 -9.33301 4 -19.5 8 -30.5s10 -21.167 18 -30.5c8.66699 -10 20.334 -17.167 35.001 -21.5s30 -6.5 46 -6.5s31 2.33301 45 7s25.667 11.667 35 21
c7.33301 7.33301 13.166 16.5 17.499 27.5s7.16602 21.5 8.49902 31.5c2 12 3 24 3 36zM332.997 243l-0.00292969 11.5c0 7.66699 -1 17 -3 28s-5.33301 22.833 -10 35.5s-12 24.334 -22 35.001c-22 23.333 -52.667 35 -92 35s-70 -11.667 -92 -35
c-10 -10.667 -17.333 -22.334 -22 -35.001s-8 -24.5 -10 -35.5s-3 -20.333 -3 -28v-11.5l-1 -80c-1.33301 -14 -0.666016 -27.667 2.00098 -41c2 -11.333 5.33301 -23.833 10 -37.5s12 -25.834 22 -36.501c10.667 -11.333 24 -19.833 40 -25.5s33.667 -8.5 53 -8.5
s37.333 2.83301 54 8.5s30.334 14.167 41.001 25.5c9.33301 10.667 16.5 22.834 21.5 36.501s8.5 26.167 10.5 37.5c2.66699 13.333 3.33398 27 2.00098 41z" />
    <glyph glyph-name="nine" unicode="9" horiz-adv-x="453" 
d="M78 571c0.666992 2 0.999023 7.33496 0.999023 16.002s1.16699 19.167 3.5 31.5s6.33301 25.5 12 39.5s14.167 27 25.5 39c26 27.333 61.667 41 107 41c44.667 0 79.667 -13.667 105 -41c11.333 -12 19.833 -25.333 25.5 -40s9.5 -28.5 11.5 -41.5s3 -24.167 3 -33.5v-17
v-410c0 -26.667 -3.66699 -52.334 -11 -77.001s-19.666 -44 -36.999 -58c-13.333 -10.667 -28.333 -17.834 -45 -21.501s-34 -5.5 -52 -5.5c-9.33301 0 -21.666 0.833008 -36.999 2.5s-30.5 7.83398 -45.5 18.501s-28 27.5 -39 50.5s-16.5 55.833 -16.5 98.5h21
c-0.666992 -38 3.66602 -67 12.999 -87s20.5 -34.667 33.5 -44s26.167 -14.666 39.5 -15.999s23.666 -2 30.999 -2c15.333 0 30.333 1.66699 45 5s27.834 10.166 39.501 20.499s21 24.666 28 42.999s10.5 42.5 10.5 72.5v168c0.666992 -5.33301 -1.5 -12 -6.5 -20
s-9.83301 -14.667 -14.5 -20c-26 -27.333 -61.667 -41 -107 -41c-44.667 0 -79.667 13.667 -105 41c-11.333 12 -19.833 25.167 -25.5 39.5s-9.5 27.833 -11.5 40.5s-3 23.5 -3 32.5v16.5l1 159v0zM98.999 412.002v-14c0 -8 0.833008 -17.667 2.5 -29
s4.83398 -23.5 9.50098 -36.5s12 -24.833 22 -35.5c20.667 -22.667 50.334 -34 89.001 -34c39.333 0 70 11.667 92 35c13.333 14.667 22.666 31.334 27.999 50.001s8 33.667 8 45v173l0.5 12.5c0.333008 8.33301 -0.5 18.5 -2.5 30.5s-5.33301 24.667 -10 38
s-12 25.333 -22 36c-20.667 22.667 -50.334 34 -89.001 34c-39.333 0 -70 -11.667 -92 -35c-10 -10.667 -17.333 -22.334 -22 -35.001s-8 -24.5 -10 -35.5s-3 -20.333 -3 -28v-11.5z" />
    <glyph glyph-name="colon" unicode=":" horiz-adv-x="168" 
d="M103 243v-29h-30v29h30zM103 529v-29h-29v29h29z" />
    <glyph glyph-name="semicolon" unicode=";" horiz-adv-x="157" 
d="M100 527v-29h-30v29h30zM50 207l18 -7l39 133l-19 5z" />
    <glyph glyph-name="less" unicode="&#x3c;" horiz-adv-x="388" 
d="M47 375l260 260l15 -15l-252 -252l251 -249l-15 -15l-259 256v15zM47 375v-15v15z" />
    <glyph glyph-name="equal" unicode="=" horiz-adv-x="529" 
d="M35 460v11v10h452v-10v-11h-452zM487 279v-11v-11h-452v11v11h452z" />
    <glyph glyph-name="greater" unicode="&#x3e;" horiz-adv-x="388" 
d="M334 360v15v-15zM334 360l-259 -256l-15 15l251 249l-252 252l15 15l260 -260v-15z" />
    <glyph glyph-name="question" unicode="?" horiz-adv-x="532" 
d="M285 35v-28h-30v28h30zM260 139l-0.000976562 121.002c0 27.333 9 52 27 74c8 9.33301 17 17.666 27 24.999s20.667 14.666 32 21.999l36.5 26.5c12.333 9 23.333 19.833 33 32.5s17.5 27.334 23.5 44.001s9 36.667 9 60c0 22.667 -4.33301 44.167 -13 64.5
s-20.667 38.166 -36 53.499s-33.166 27.333 -53.499 36s-41.833 13 -64.5 13c-23.333 0 -45.166 -5 -65.499 -15s-38 -23.167 -53 -39.5s-27 -35.333 -36 -57s-13.5 -43.834 -13.5 -66.501h-20c0 26 4.83301 50.833 14.5 74.5s23 44.834 40 63.501s37 33.5 60 44.5
s47.5 16.5 73.5 16.5s50.333 -5 73 -15s42.5 -23.5 59.5 -40.5s30.5 -36.833 40.5 -59.5s15 -47 15 -73c0 -23.333 -2.83301 -44.833 -8.5 -64.5s-14.834 -37.167 -27.501 -52.5c-11.333 -14 -23.333 -25.833 -36 -35.5l-39 -28.5c-20.667 -14 -38.667 -28.333 -54 -43
s-23 -34.667 -23 -60v-58v-9v-2v-2v-50h-11h-10z" />
    <glyph glyph-name="at" unicode="@" 
 />
    <glyph glyph-name="A" unicode="A" horiz-adv-x="423" 
d="M209 733h1h2h1h1h2h-7zM367 6h-22l-45 219h-174l-47 -219h-22l147 727h17zM294 246l-81 432l-84 -432h165z" />
    <glyph glyph-name="B" unicode="B" horiz-adv-x="484" 
d="M323 681c24.667 -36.667 36.668 -77.6709 36.001 -123.004c0 -21.333 -2.5 -41.166 -7.5 -59.499s-11.667 -34.666 -20 -48.999s-17.833 -26.166 -28.5 -35.499s-22 -16 -34 -20c14 -2 29.167 -7.66699 45.5 -17s29.166 -20.666 38.499 -33.999
c13.333 -19.333 23.333 -40.833 30 -64.5s10 -48.5 10 -74.5c0 -43.333 -6.16699 -78 -18.5 -104s-27.666 -46 -45.999 -60s-38.333 -23.333 -60 -28s-42.5 -7 -62.5 -7h-103h-12v729h126c28.667 0 50.667 -4.66699 66 -14s28.666 -22.333 39.999 -39zM112.001 402.996
l113 -0.000976562c16.667 0 32 4.16699 46 12.5s26 19.666 36 33.999s17.667 30.833 23 49.5s8 38.334 8 59.001s-2.83301 40.334 -8.5 59.001s-13.5 35 -23.5 49s-21.667 25.167 -35 33.5s-28 12.5 -44 12.5h-115v-309zM206.001 25.9951
c32.667 0 59.8311 4.83301 81.498 14.5s38.834 22.667 51.501 39s21.5 35.333 26.5 57s7.16699 44.167 6.5 67.5c-1.33301 61.333 -15.166 106.333 -41.499 135s-67.833 43 -124.5 43h-94v-356h94z" />
    <glyph glyph-name="C" unicode="C" horiz-adv-x="484" 
d="M389 172h-21h21zM389 172l-0.000976562 -15.5029c0 -9.66699 -1.16699 -21.5 -3.5 -35.5s-6.33301 -28.667 -12 -44s-14.167 -29 -25.5 -41c-26 -27.333 -62 -41 -108 -41s-81 13.667 -105 41c-12 12.667 -20.833 26.334 -26.5 41.001s-9.5 28.5 -11.5 41.5
s-2.83301 24.167 -2.5 33.5s0.5 15 0.5 17v411c0 53.333 16 95 48 125c12.667 11.333 27.5 20.333 44.5 27s34.5 10 52.5 10c36 0 68.667 -12 98 -36c16.667 -14 29.5 -33.167 38.5 -57.5s13.5 -50.833 13.5 -79.5h-22c0 26 -3.83301 48.667 -11.5 68
s-17.667 35.166 -30 47.499s-26.166 21.5 -41.499 27.5s-30.333 9 -45 9c-15.333 0 -30.5 -2.83301 -45.5 -8.5s-28.333 -14.167 -40 -25.5s-21 -26 -28 -44s-10.5 -39 -10.5 -63v-412v-1v-12.5c0 -8.33301 0.833008 -18.333 2.5 -30s5 -24.167 10 -37.5
s12.5 -25.333 22.5 -36c21.333 -23.333 51 -35 89 -35c39.333 0 70 11.667 92 35c10 10.667 17.5 22.834 22.5 36.501s8.5 26.834 10.5 39.501s3 23.334 3 32.001v13h21z" />
    <glyph glyph-name="D" unicode="D" horiz-adv-x="477" 
d="M92 733l150 0.000976562c18 0 35.333 -3.16699 52 -9.5s31.334 -15.5 44.001 -27.5c32 -30 48 -71.667 48 -125v-403c0 -54.667 -16 -96.334 -48 -125.001c-12.667 -12 -27.334 -21.167 -44.001 -27.5s-34 -9.5 -52 -9.5h-81h-69v10v717zM365 571.001
c0 24 -3.5 44.998 -10.5 62.998s-16.333 32.667 -28 44s-24.834 19.833 -39.501 25.5s-29.667 8.5 -45 8.5h-81h-48v-685h48h81c15.333 0 30.333 2.66699 45 8s27.834 13.833 39.501 25.5s21 26.334 28 44.001s10.5 38.834 10.5 63.501v403z" />
    <glyph glyph-name="E" unicode="E" horiz-adv-x="476" 
d="M383 25v-9v-10h-282v10v706v11h278v-11v-8h-257v-378h201v-10v-9h-201v-292h261z" />
    <glyph glyph-name="F" unicode="F" horiz-adv-x="469" 
d="M382 733v-11v-8h-264v-378h207v-10v-10l-206 1l-1 -311h-11h-10v716v11h285z" />
    <glyph glyph-name="G" unicode="G" horiz-adv-x="477" 
d="M254 324l0.000976562 19.999l131 -1v-180c0 -2 -0.166992 -7.33301 -0.5 -16s-1.66602 -19 -3.99902 -31s-6.5 -25 -12.5 -39s-14.333 -27 -25 -39c-26 -28 -61.667 -42 -107 -42c-46 0 -81 13.667 -105 41c-12 12.667 -20.833 26.334 -26.5 41.001s-9.5 28.5 -11.5 41.5
s-2.83301 24.167 -2.5 33.5s0.5 15 0.5 17v411c0 53.333 16 95 48 125c12.667 11.333 27.5 20.333 44.5 27s34.5 10 52.5 10c16.667 0 33.5 -3.33301 50.5 -10s32.5 -17.167 46.5 -31.5s25.333 -32.333 34 -54s13 -47.5 13 -77.5h-21c0 26 -3.66699 48.5 -11 67.5
s-16.833 34.667 -28.5 47s-24.834 21.5 -39.501 27.5s-29.334 9 -44.001 9c-15.333 0 -30.5 -2.66699 -45.5 -8s-28.333 -13.833 -40 -25.5s-21 -26.334 -28 -44.001s-10.5 -38.5 -10.5 -62.5v-412v-1v-12.5c0 -8.33301 0.833008 -18.333 2.5 -30s5 -24.167 10 -37.5
s12.5 -25.333 22.5 -36c21.333 -23.333 51 -35 89 -35c39.333 0 70 11.667 92 35c10 10.667 17.5 22.334 22.5 35.001s8.5 24.5 10.5 35.5s3 20.333 3 28v11.5v1l-1 160z" />
    <glyph glyph-name="H" unicode="H" horiz-adv-x="515" 
d="M413 733v-727h-11h-10v311h-274v-311h-10h-11v727h11h10v-397h274v397h10h11z" />
    <glyph glyph-name="I" unicode="I" horiz-adv-x="248" 
d="M113 6v727h11h11v-727h-11h-11z" />
    <glyph glyph-name="J" unicode="J" horiz-adv-x="493" 
d="M140 42c-12 12.667 -20.832 26.999 -26.499 42.999s-9.5 31.167 -11.5 45.5s-2.83301 26.5 -2.5 36.5s0.5 15.667 0.5 17h21v-14c0 -9.33301 0.833008 -20.666 2.5 -33.999s5 -27.333 10 -42s12.5 -27.334 22.5 -38.001c20.667 -22.667 50.334 -34 89.001 -34
c39.333 0 70 11.667 92 35c10 10.667 17.5 22.334 22.5 35.001s8.5 24.5 10.5 35.5s3 20.333 3 28v11.5v571h11h10v-570v-16.5c0 -9 -1.33301 -19.5 -4 -31.5s-6.83398 -25 -12.501 -39s-13.834 -27 -24.501 -39c-24.667 -27.333 -60.667 -41 -108 -41
c-44.667 0 -79.667 13.667 -105 41z" />
    <glyph glyph-name="K" unicode="K" horiz-adv-x="508" 
d="M394 731l27.001 0.00195312l-185 -298c1.33301 -0.666992 2.16602 -1.33398 2.49902 -2.00098s0.833008 -1.33398 1.5 -2.00098l212 -419h-24l-204 403l-106 -173v-233h-11h-11v725h11h11v-454z" />
    <glyph glyph-name="L" unicode="L" horiz-adv-x="516" 
d="M116 6v10v717h11h11v-708h268v-9v-10h-290z" />
    <glyph glyph-name="M" unicode="M" horiz-adv-x="570" 
d="M105 680v-674h-10h-11v717v1v9h17l185 -362l185 362h17v-9v-1v-717h-11h-11v675l-173 -345h-14zM474 733h1h1h1h1h1h1h1h-7zM98 733h-1h-1h-1h-1h-1h-1h-1h7z" />
    <glyph glyph-name="N" unicode="N" horiz-adv-x="507" 
d="M412 6h-2h-2h-2h-1h7zM113 6l-11.001 -0.00195312h-11v717v10h18l276 -637c4 -9.33301 6.83301 -16.666 8.5 -21.999s3.16699 -9.66602 4.5 -12.999v672h10h11v-727h-18l-273 632l-8.5 20.5c-4.33301 10.333 -7.16602 18.5 -8.49902 24.5zM105.999 732.998h-1h-1h-1h-1
h-1h-1h-1h7z" />
    <glyph glyph-name="O" unicode="O" horiz-adv-x="453" 
d="M394 163l-0.00488281 -16c0 -8.66699 -1.33301 -19.167 -4 -31.5s-6.83398 -25.5 -12.501 -39.5s-14.167 -27 -25.5 -39c-13.333 -13.333 -32.166 -23.5 -56.499 -30.5s-47.833 -10.5 -70.5 -10.5s-46 3.5 -70 10.5s-42.333 17.167 -55 30.5
c-11.333 12 -19.833 25.333 -25.5 40s-9.5 28.5 -11.5 41.5s-3 24.167 -3 33.5v17v410c0 26.667 3.83301 50.5 11.5 71.5s19.834 38.833 36.501 53.5c6.66699 6 14.834 11.333 24.501 16s19.834 8.5 30.501 11.5s21.334 5.33301 32.001 7s20.667 2.5 30 2.5
c8.66699 0 18.5 -0.666992 29.5 -2s22 -3.5 33 -6.5s21.333 -6.66699 31 -11s17.834 -9.5 24.501 -15.5c34 -30 51 -72.333 51 -127v-416zM372.995 579c0 23.333 -3.16504 43.3311 -9.49805 59.998s-14.5 30.667 -24.5 42c-6.66699 6.66699 -14.834 12.5 -24.501 17.5
s-19.667 9.16699 -30 12.5s-20.833 5.66602 -31.5 6.99902s-20 2 -28 2c-15.333 0 -31.5 -1.83301 -48.5 -5.5s-32.5 -10.667 -46.5 -21s-25.5 -24.666 -34.5 -42.999s-13.5 -42.166 -13.5 -71.499v-411l-0.5 -12.5c-0.333008 -8.33301 0.5 -18.5 2.5 -30.5
s5.33301 -24.667 10 -38s12 -25.333 22 -36c10.667 -11.333 26.667 -19.833 48 -25.5s41.666 -8.5 60.999 -8.5c10 0 20.333 0.666992 31 2s21.167 3.5 31.5 6.5s19.833 6.66699 28.5 11s15.667 9.5 21 15.5c10 10.667 17.333 22.334 22 35.001s8 24.5 10 35.5
s3 20.333 3 28v11.5z" />
    <glyph glyph-name="P" unicode="P" horiz-adv-x="474" 
d="M348 668c12.667 -20 22.501 -42.5 29.501 -67.5s10.5 -50.167 10.5 -75.5c0 -26 -3.5 -51.5 -10.5 -76.5s-16.833 -47.167 -29.5 -66.5c-14 -21.333 -32 -37.5 -54 -48.5s-53 -16.5 -93 -16.5h-94v-311h-11h-10v715v12h12h103c36 0 66.167 -5.66699 90.5 -17
s43.166 -27.333 56.499 -48zM330.001 393c11.333 18 20.332 38.5 26.999 61.5s10 46.5 10 70.5c0 23.333 -3.33301 46.5 -10 69.5s-15.667 43.5 -27 61.5c-11.333 17.333 -27.666 30.833 -48.999 40.5s-48 14.5 -80 14.5h-94v-373h94c38.667 0 67 4.83301 85 14.5
s32.667 23.167 44 40.5z" />
    <glyph glyph-name="Q" unicode="Q" horiz-adv-x="500" 
d="M378 579c0 23.333 -2.99707 43.3311 -8.99707 59.998s-14.333 30.667 -25 42c-6 6.66699 -13.833 12.5 -23.5 17.5s-19.834 9.16699 -30.501 12.5s-21.334 5.66602 -32.001 6.99902s-20 2 -28 2c-15.333 0 -31.5 -1.83301 -48.5 -5.5s-32.5 -10.667 -46.5 -21
s-25.5 -24.666 -34.5 -42.999s-13.5 -42.166 -13.5 -71.499v-411l-0.5 -12.5c-0.333008 -8.33301 0.5 -18.5 2.5 -30.5s5.33301 -24.667 10 -38s12 -25.333 22 -36c10.667 -11.333 26.667 -19.833 48 -25.5s41.666 -8.5 60.999 -8.5c10 0 20.333 0.666992 31 2
s21.167 3.5 31.5 6.5s19.833 6.66699 28.5 11s15.667 9.5 21 15.5c10 10.667 17.333 22.334 22 35.001s8 24.5 10 35.5s3 20.333 3 28v11.5zM329.003 16.998c-14 -7.33301 -30.0039 -12.667 -48.0039 -16s-35 -5 -51 -5c-22.667 0 -46 3.5 -70 10.5s-42.333 17.167 -55 30.5
c-11.333 12 -19.833 25.333 -25.5 40s-9.5 28.5 -11.5 41.5s-3 24.167 -3 33.5v17v410c0 26.667 3.83301 50.5 11.5 71.5s19.834 38.833 36.501 53.5c6.66699 6 14.834 11.333 24.501 16s19.834 8.5 30.501 11.5s21.334 5.33301 32.001 7s20.667 2.5 30 2.5
c8.66699 0 18.5 -0.666992 29.5 -2s22 -3.5 33 -6.5s21.333 -6.66699 31 -11s17.834 -9.5 24.501 -15.5c34 -30 51 -72.333 51 -127v-416v-16c0 -8.66699 -1.33301 -19.167 -4 -31.5s-6.83398 -25.5 -12.501 -39.5s-14.167 -27 -25.5 -39c-4 -4 -7.33301 -7 -10 -9l74 -84
h-30l-62 73v0z" />
    <glyph glyph-name="R" unicode="R" horiz-adv-x="491" 
d="M268 320c-7.33301 -1.33301 -14.8311 -2.16699 -22.498 -2.5s-15.834 -0.5 -24.501 -0.5h-94v-311h-11h-10v715v12h12h103c36 0 66.167 -5.66699 90.5 -17s43.166 -27.333 56.499 -48c12.667 -20 22.5 -42.5 29.5 -67.5s10.5 -50.167 10.5 -75.5
c0 -26 -3.5 -51.5 -10.5 -76.5s-16.833 -47.167 -29.5 -66.5c-9.33301 -14.667 -20.333 -27 -33 -37s-28.667 -17 -48 -21zM350.002 392.999c11.333 18 20.332 38.5 26.999 61.5s10 46.5 10 70.5c0 23.333 -3.33301 46.5 -10 69.5s-15.667 43.5 -27 61.5
c-11.333 17.333 -27.666 30.833 -48.999 40.5s-48 14.5 -80 14.5h-94v-373h94c38.667 0 67 4.83301 85 14.5s32.667 23.167 44 40.5zM287.001 323.999l139 -317h-22l-137 313z" />
    <glyph glyph-name="S" unicode="S" horiz-adv-x="468" 
d="M129 32c-16.667 14.667 -29.1631 34.3389 -37.4961 59.0059s-12.5 51 -12.5 79h21c0 -32 4.5 -58 13.5 -78s20.333 -35.5 34 -46.5s28.5 -18.333 44.5 -22s31 -5.5 45 -5.5c17.333 0 34.5 2.5 51.5 7.5s32.333 13 46 24s24.667 25.5 33 43.5s12.5 40 12.5 66
c0 30 -4.33301 56.167 -13 78.5s-20.167 42.166 -34.5 59.499s-30.5 32.833 -48.5 46.5l-55 40.5l-51.5 37.5c-16.333 12.333 -31.166 26.166 -44.499 41.499c-29.333 35.333 -44 74.666 -44 117.999v15.5c0 8.33301 1.16699 18.166 3.5 29.499
s6.16602 23.666 11.499 36.999s13.666 25.666 24.999 36.999c26 28 62.333 42 109 42c47.333 0 83 -14 107 -42c10 -12 17.167 -25.167 21.5 -39.5s7.16602 -28 8.49902 -41s1.83301 -24 1.5 -33s-0.5 -13.833 -0.5 -14.5h-21l0.5 12c0.333008 8 -0.166992 18 -1.5 30
s-3.83301 24.5 -7.5 37.5s-9.83398 24.5 -18.501 34.5c-10 11.333 -22.333 20 -37 26s-32.334 9 -53.001 9c-40.667 0 -71.667 -11.667 -93 -35c-9.33301 -10 -16.333 -21 -21 -33s-8 -23.167 -10 -33.5s-3 -19.166 -3 -26.499v-11c0 -22 3.66699 -41.5 11 -58.5
s17 -32.667 29 -47s25.833 -27.5 41.5 -39.5l48.5 -36c19.333 -13.333 38.333 -27.333 57 -42s35.667 -31.334 51 -50.001c34.667 -42.667 52 -92.667 52 -150c0 -54 -18 -96 -54 -126c-29.333 -24 -66 -36 -110 -36c-15.333 0 -32.833 2.16699 -52.5 6.5
s-38.167 13.833 -55.5 28.5z" />
    <glyph glyph-name="T" unicode="T" horiz-adv-x="445" 
d="M209 713h-166v9v10h350v-10v-10l1 1h-164v-707h-11h-10v707z" />
    <glyph glyph-name="U" unicode="U" horiz-adv-x="501" 
d="M401 168l0.000976562 -14.999c0 -8.66699 -1.33301 -19.167 -4 -31.5s-6.83398 -25.5 -12.501 -39.5s-14.167 -27 -25.5 -39c-25.333 -27.333 -61 -41 -107 -41c-44.667 0 -79.667 13.667 -105 41c-11.333 12 -19.833 25.333 -25.5 40s-9.5 28.5 -11.5 41.5
s-3 24.167 -3 33.5v17v562h11h11v-563v-1v-21.5c0 -7 0.666992 -13.833 2 -20.5c1.33301 -12 4.5 -24.5 9.5 -37.5s12.5 -25.167 22.5 -36.5c20.667 -22.667 50.334 -34 89.001 -34c39.333 0 70 11.667 92 35c9.33301 10.667 16.5 22.167 21.5 34.5s8.5 24.166 10.5 35.499
c1.33301 6.66699 2.16602 13.167 2.49902 19.5s0.5 12.833 0.5 19.5v1v569h11h11v-569z" />
    <glyph glyph-name="V" unicode="V" horiz-adv-x="468" 
d="M366 729h22l-146 -719h-9h-2h-2h-9l-147 719h22l136 -670z" />
    <glyph glyph-name="W" unicode="W" horiz-adv-x="625" 
d="M318 358l-116 -351h-18l-90 725h21l84 -666l111 337h16l111 -337l82 666h22l-89 -725h-18zM446 7h-1h-1h-1h3zM441 7h-1h-1h-1h3zM190 7h1h1h1h-3zM195 7h1h1h1h-3zM322 403h-1h-1h-1h-1h-1h-1h-1h-1h8z" />
    <glyph glyph-name="X" unicode="X" horiz-adv-x="477" 
d="M258 305l-19 50l-19 -50l-114 -299h-23l117 306l27 71l-132 346h22l121 -327l123 327h22l-133 -346l27 -71l118 -305h-23z" />
    <glyph glyph-name="Y" unicode="Y" horiz-adv-x="446" 
d="M352 732h23l-140 -354v-371h-11h-11v371l-140 354h23l128 -334z" />
    <glyph glyph-name="Z" unicode="Z" horiz-adv-x="477" 
d="M363 712h-230v10v11h254v-15l-273 -691h273v-10v-11h-298v17zM387 733v-15v15z" />
    <glyph glyph-name="bracketleft" unicode="[" 
 />
    <glyph glyph-name="backslash" unicode="\" 
 />
    <glyph glyph-name="bracketright" unicode="]" 
 />
    <glyph glyph-name="asciicircum" unicode="^" 
 />
    <glyph glyph-name="underscore" unicode="_" 
 />
    <glyph glyph-name="grave" unicode="`" horiz-adv-x="202" 
d="M113 668c-7.33301 -2 -11.333 0.333008 -12 7l-33 114c-2 7.33301 0.333008 11.333 7 12c6 2 10 -0.333008 12 -7l33 -114c1.33301 -7.33301 -1 -11.333 -7 -12z" />
    <glyph glyph-name="a" unicode="a" horiz-adv-x="423" 
d="M205 733h1h2h1h1h2h-7zM363 6h-22l-45 219h-174l-47 -219h-22l147 727h17zM290 246l-81 432l-84 -432h165z" />
    <glyph glyph-name="b" unicode="b" horiz-adv-x="484" 
d="M323 681c24.667 -36.667 36.668 -77.6709 36.001 -123.004c0 -21.333 -2.5 -41.166 -7.5 -59.499s-11.667 -34.666 -20 -48.999s-17.833 -26.166 -28.5 -35.499s-22 -16 -34 -20c14 -2 29.167 -7.66699 45.5 -17s29.166 -20.666 38.499 -33.999
c13.333 -19.333 23.333 -40.833 30 -64.5s10 -48.5 10 -74.5c0 -43.333 -6.16699 -78 -18.5 -104s-27.666 -46 -45.999 -60s-38.333 -23.333 -60 -28s-42.5 -7 -62.5 -7h-103h-12v729h126c28.667 0 50.667 -4.66699 66 -14s28.666 -22.333 39.999 -39zM112.001 402.996
l113 -0.000976562c16.667 0 32 4.16699 46 12.5s26 19.666 36 33.999s17.667 30.833 23 49.5s8 38.334 8 59.001s-2.83301 40.334 -8.5 59.001s-13.5 35 -23.5 49s-21.667 25.167 -35 33.5s-28 12.5 -44 12.5h-115v-309zM206.001 25.9951
c32.667 0 59.8311 4.83301 81.498 14.5s38.834 22.667 51.501 39s21.5 35.333 26.5 57s7.16699 44.167 6.5 67.5c-1.33301 61.333 -15.166 106.333 -41.499 135s-67.833 43 -124.5 43h-94v-356h94z" />
    <glyph glyph-name="c" unicode="c" horiz-adv-x="484" 
d="M389 172h-21h21zM389 172l-0.000976562 -15.5029c0 -9.66699 -1.16699 -21.5 -3.5 -35.5s-6.33301 -28.667 -12 -44s-14.167 -29 -25.5 -41c-26 -27.333 -62 -41 -108 -41s-81 13.667 -105 41c-12 12.667 -20.833 26.334 -26.5 41.001s-9.5 28.5 -11.5 41.5
s-2.83301 24.167 -2.5 33.5s0.5 15 0.5 17v411c0 53.333 16 95 48 125c12.667 11.333 27.5 20.333 44.5 27s34.5 10 52.5 10c36 0 68.667 -12 98 -36c16.667 -14 29.5 -33.167 38.5 -57.5s13.5 -50.833 13.5 -79.5h-22c0 26 -3.83301 48.667 -11.5 68
s-17.667 35.166 -30 47.499s-26.166 21.5 -41.499 27.5s-30.333 9 -45 9c-15.333 0 -30.5 -2.83301 -45.5 -8.5s-28.333 -14.167 -40 -25.5s-21 -26 -28 -44s-10.5 -39 -10.5 -63v-412v-1v-12.5c0 -8.33301 0.833008 -18.333 2.5 -30s5 -24.167 10 -37.5
s12.5 -25.333 22.5 -36c21.333 -23.333 51 -35 89 -35c39.333 0 70 11.667 92 35c10 10.667 17.5 22.834 22.5 36.501s8.5 26.834 10.5 39.501s3 23.334 3 32.001v13h21z" />
    <glyph glyph-name="d" unicode="d" horiz-adv-x="477" 
d="M92 733l150 0.000976562c18 0 35.333 -3.16699 52 -9.5s31.334 -15.5 44.001 -27.5c32 -30 48 -71.667 48 -125v-403c0 -54.667 -16 -96.334 -48 -125.001c-12.667 -12 -27.334 -21.167 -44.001 -27.5s-34 -9.5 -52 -9.5h-81h-69v10v717zM365 571.001
c0 24 -3.5 44.998 -10.5 62.998s-16.333 32.667 -28 44s-24.834 19.833 -39.501 25.5s-29.667 8.5 -45 8.5h-81h-48v-685h48h81c15.333 0 30.333 2.66699 45 8s27.834 13.833 39.501 25.5s21 26.334 28 44.001s10.5 38.834 10.5 63.501v403z" />
    <glyph glyph-name="e" unicode="e" horiz-adv-x="476" 
d="M383 25v-9v-10h-282v10v706v11h278v-11v-8h-257v-378h201v-10v-9h-201v-292h261z" />
    <glyph glyph-name="f" unicode="f" horiz-adv-x="469" 
d="M382 733v-11v-8h-264v-378h207v-10v-10l-206 1l-1 -311h-11h-10v716v11h285z" />
    <glyph glyph-name="g" unicode="g" horiz-adv-x="477" 
d="M254 324l0.000976562 19.999l131 -1v-180c0 -2 -0.166992 -7.33301 -0.5 -16s-1.66602 -19 -3.99902 -31s-6.5 -25 -12.5 -39s-14.333 -27 -25 -39c-26 -28 -61.667 -42 -107 -42c-46 0 -81 13.667 -105 41c-12 12.667 -20.833 26.334 -26.5 41.001s-9.5 28.5 -11.5 41.5
s-2.83301 24.167 -2.5 33.5s0.5 15 0.5 17v411c0 53.333 16 95 48 125c12.667 11.333 27.5 20.333 44.5 27s34.5 10 52.5 10c16.667 0 33.5 -3.33301 50.5 -10s32.5 -17.167 46.5 -31.5s25.333 -32.333 34 -54s13 -47.5 13 -77.5h-21c0 26 -3.66699 48.5 -11 67.5
s-16.833 34.667 -28.5 47s-24.834 21.5 -39.501 27.5s-29.334 9 -44.001 9c-15.333 0 -30.5 -2.66699 -45.5 -8s-28.333 -13.833 -40 -25.5s-21 -26.334 -28 -44.001s-10.5 -38.5 -10.5 -62.5v-412v-1v-12.5c0 -8.33301 0.833008 -18.333 2.5 -30s5 -24.167 10 -37.5
s12.5 -25.333 22.5 -36c21.333 -23.333 51 -35 89 -35c39.333 0 70 11.667 92 35c10 10.667 17.5 22.334 22.5 35.001s8.5 24.5 10.5 35.5s3 20.333 3 28v11.5v1l-1 160z" />
    <glyph glyph-name="h" unicode="h" horiz-adv-x="515" 
d="M413 733v-727h-11h-10v311h-274v-311h-10h-11v727h11h10v-397h274v397h10h11z" />
    <glyph glyph-name="i" unicode="i" horiz-adv-x="248" 
d="M113 6v727h11h11v-727h-11h-11z" />
    <glyph glyph-name="j" unicode="j" horiz-adv-x="493" 
d="M140 42c-12 12.667 -20.832 26.999 -26.499 42.999s-9.5 31.167 -11.5 45.5s-2.83301 26.5 -2.5 36.5s0.5 15.667 0.5 17h21v-14c0 -9.33301 0.833008 -20.666 2.5 -33.999s5 -27.333 10 -42s12.5 -27.334 22.5 -38.001c20.667 -22.667 50.334 -34 89.001 -34
c39.333 0 70 11.667 92 35c10 10.667 17.5 22.334 22.5 35.001s8.5 24.5 10.5 35.5s3 20.333 3 28v11.5v571h11h10v-570v-16.5c0 -9 -1.33301 -19.5 -4 -31.5s-6.83398 -25 -12.501 -39s-13.834 -27 -24.501 -39c-24.667 -27.333 -60.667 -41 -108 -41
c-44.667 0 -79.667 13.667 -105 41z" />
    <glyph glyph-name="k" unicode="k" horiz-adv-x="508" 
d="M394 731l27.001 0.00195312l-185 -298c1.33301 -0.666992 2.16602 -1.33398 2.49902 -2.00098s0.833008 -1.33398 1.5 -2.00098l212 -419h-24l-204 403l-106 -173v-233h-11h-11v725h11h11v-454z" />
    <glyph glyph-name="l" unicode="l" horiz-adv-x="516" 
d="M116 6v10v717h11h11v-708h268v-9v-10h-290z" />
    <glyph glyph-name="m" unicode="m" horiz-adv-x="570" 
d="M105 680v-674h-10h-11v717v1v9h17l185 -362l185 362h17v-9v-1v-717h-11h-11v675l-173 -345h-14zM474 733h1h1h1h1h1h1h1h-7zM98 733h-1h-1h-1h-1h-1h-1h-1h7z" />
    <glyph glyph-name="n" unicode="n" horiz-adv-x="507" 
d="M412 6h-2h-2h-2h-1h7zM113 6l-11.001 -0.00195312h-11v717v10h18l276 -637c4 -9.33301 6.83301 -16.666 8.5 -21.999s3.16699 -9.66602 4.5 -12.999v672h10h11v-727h-18l-273 632l-8.5 20.5c-4.33301 10.333 -7.16602 18.5 -8.49902 24.5zM105.999 732.998h-1h-1h-1h-1
h-1h-1h-1h7z" />
    <glyph glyph-name="o" unicode="o" horiz-adv-x="453" 
d="M389 163l-0.00488281 -16c0 -8.66699 -1.33301 -19.167 -4 -31.5s-6.83398 -25.5 -12.501 -39.5s-14.167 -27 -25.5 -39c-13.333 -13.333 -32.166 -23.5 -56.499 -30.5s-47.833 -10.5 -70.5 -10.5s-46 3.5 -70 10.5s-42.333 17.167 -55 30.5
c-11.333 12 -19.833 25.333 -25.5 40s-9.5 28.5 -11.5 41.5s-3 24.167 -3 33.5v17v410c0 26.667 3.83301 50.5 11.5 71.5s19.834 38.833 36.501 53.5c6.66699 6 14.834 11.333 24.501 16s19.834 8.5 30.501 11.5s21.334 5.33301 32.001 7s20.667 2.5 30 2.5
c8.66699 0 18.5 -0.666992 29.5 -2s22 -3.5 33 -6.5s21.333 -6.66699 31 -11s17.834 -9.5 24.501 -15.5c34 -30 51 -72.333 51 -127v-416zM367.995 579c0 23.333 -2.99707 43.3311 -8.99707 59.998s-14.333 30.667 -25 42c-6 6.66699 -13.833 12.5 -23.5 17.5
s-19.834 9.16699 -30.501 12.5s-21.334 5.66602 -32.001 6.99902s-20 2 -28 2c-15.333 0 -31.5 -1.83301 -48.5 -5.5s-32.5 -10.667 -46.5 -21s-25.5 -24.666 -34.5 -42.999s-13.5 -42.166 -13.5 -71.499v-411l-0.5 -12.5c-0.333008 -8.33301 0.5 -18.5 2.5 -30.5
s5.33301 -24.667 10 -38s12 -25.333 22 -36c10.667 -11.333 26.667 -19.833 48 -25.5s41.666 -8.5 60.999 -8.5c10 0 20.333 0.666992 31 2s21.167 3.5 31.5 6.5s19.833 6.66699 28.5 11s15.667 9.5 21 15.5c10 10.667 17.333 22.334 22 35.001s8 24.5 10 35.5
s3 20.333 3 28v11.5z" />
    <glyph glyph-name="p" unicode="p" horiz-adv-x="474" 
d="M348 668c12.667 -20 22.501 -42.5 29.501 -67.5s10.5 -50.167 10.5 -75.5c0 -26 -3.5 -51.5 -10.5 -76.5s-16.833 -47.167 -29.5 -66.5c-14 -21.333 -32 -37.5 -54 -48.5s-53 -16.5 -93 -16.5h-94v-311h-11h-10v715v12h12h103c36 0 66.167 -5.66699 90.5 -17
s43.166 -27.333 56.499 -48zM330.001 393c11.333 18 20.332 38.5 26.999 61.5s10 46.5 10 70.5c0 23.333 -3.33301 46.5 -10 69.5s-15.667 43.5 -27 61.5c-11.333 17.333 -27.666 30.833 -48.999 40.5s-48 14.5 -80 14.5h-94v-373h94c38.667 0 67 4.83301 85 14.5
s32.667 23.167 44 40.5z" />
    <glyph glyph-name="q" unicode="q" horiz-adv-x="500" 
d="M378 579c0 23.333 -2.99707 43.3311 -8.99707 59.998s-14.333 30.667 -25 42c-6 6.66699 -13.833 12.5 -23.5 17.5s-19.834 9.16699 -30.501 12.5s-21.334 5.66602 -32.001 6.99902s-20 2 -28 2c-15.333 0 -31.5 -1.83301 -48.5 -5.5s-32.5 -10.667 -46.5 -21
s-25.5 -24.666 -34.5 -42.999s-13.5 -42.166 -13.5 -71.499v-411l-0.5 -12.5c-0.333008 -8.33301 0.5 -18.5 2.5 -30.5s5.33301 -24.667 10 -38s12 -25.333 22 -36c10.667 -11.333 26.667 -19.833 48 -25.5s41.666 -8.5 60.999 -8.5c10 0 20.333 0.666992 31 2
s21.167 3.5 31.5 6.5s19.833 6.66699 28.5 11s15.667 9.5 21 15.5c10 10.667 17.333 22.334 22 35.001s8 24.5 10 35.5s3 20.333 3 28v11.5zM329.003 16.998c-14 -7.33301 -30.0039 -12.667 -48.0039 -16s-35 -5 -51 -5c-22.667 0 -46 3.5 -70 10.5s-42.333 17.167 -55 30.5
c-11.333 12 -19.833 25.333 -25.5 40s-9.5 28.5 -11.5 41.5s-3 24.167 -3 33.5v17v410c0 26.667 3.83301 50.5 11.5 71.5s19.834 38.833 36.501 53.5c6.66699 6 14.834 11.333 24.501 16s19.834 8.5 30.501 11.5s21.334 5.33301 32.001 7s20.667 2.5 30 2.5
c8.66699 0 18.5 -0.666992 29.5 -2s22 -3.5 33 -6.5s21.333 -6.66699 31 -11s17.834 -9.5 24.501 -15.5c34 -30 51 -72.333 51 -127v-416v-16c0 -8.66699 -1.33301 -19.167 -4 -31.5s-6.83398 -25.5 -12.501 -39.5s-14.167 -27 -25.5 -39c-4 -4 -7.33301 -7 -10 -9l74 -84
h-30l-62 73v0z" />
    <glyph glyph-name="r" unicode="r" horiz-adv-x="491" 
d="M268 320c-7.33301 -1.33301 -14.8311 -2.16699 -22.498 -2.5s-15.834 -0.5 -24.501 -0.5h-94v-311h-11h-10v715v12h12h103c36 0 66.167 -5.66699 90.5 -17s43.166 -27.333 56.499 -48c12.667 -20 22.5 -42.5 29.5 -67.5s10.5 -50.167 10.5 -75.5
c0 -26 -3.5 -51.5 -10.5 -76.5s-16.833 -47.167 -29.5 -66.5c-9.33301 -14.667 -20.333 -27 -33 -37s-28.667 -17 -48 -21zM350.002 392.999c11.333 18 20.332 38.5 26.999 61.5s10 46.5 10 70.5c0 23.333 -3.33301 46.5 -10 69.5s-15.667 43.5 -27 61.5
c-11.333 17.333 -27.666 30.833 -48.999 40.5s-48 14.5 -80 14.5h-94v-373h94c38.667 0 67 4.83301 85 14.5s32.667 23.167 44 40.5zM287.001 323.999l139 -317h-22l-137 313z" />
    <glyph glyph-name="s" unicode="s" horiz-adv-x="468" 
d="M129 32c-16.667 14.667 -29.1631 34.3389 -37.4961 59.0059s-12.5 51 -12.5 79h21c0 -32 4.5 -58 13.5 -78s20.333 -35.5 34 -46.5s28.5 -18.333 44.5 -22s31 -5.5 45 -5.5c17.333 0 34.5 2.5 51.5 7.5s32.333 13 46 24s24.667 25.5 33 43.5s12.5 40 12.5 66
c0 30 -4.33301 56.167 -13 78.5s-20.167 42.166 -34.5 59.499s-30.5 32.833 -48.5 46.5l-55 40.5l-51.5 37.5c-16.333 12.333 -31.166 26.166 -44.499 41.499c-29.333 35.333 -44 74.666 -44 117.999v15.5c0 8.33301 1.16699 18.166 3.5 29.499
s6.16602 23.666 11.499 36.999s13.666 25.666 24.999 36.999c26 28 62.333 42 109 42c47.333 0 83 -14 107 -42c10 -12 17.167 -25.167 21.5 -39.5s7.16602 -28 8.49902 -41s1.83301 -24 1.5 -33s-0.5 -13.833 -0.5 -14.5h-21l0.5 12c0.333008 8 -0.166992 18 -1.5 30
s-3.83301 24.5 -7.5 37.5s-9.83398 24.5 -18.501 34.5c-10 11.333 -22.333 20 -37 26s-32.334 9 -53.001 9c-40.667 0 -71.667 -11.667 -93 -35c-9.33301 -10 -16.333 -21 -21 -33s-8 -23.167 -10 -33.5s-3 -19.166 -3 -26.499v-11c0 -22 3.66699 -41.5 11 -58.5
s17 -32.667 29 -47s25.833 -27.5 41.5 -39.5l48.5 -36c19.333 -13.333 38.333 -27.333 57 -42s35.667 -31.334 51 -50.001c34.667 -42.667 52 -92.667 52 -150c0 -54 -18 -96 -54 -126c-29.333 -24 -66 -36 -110 -36c-15.333 0 -32.833 2.16699 -52.5 6.5
s-38.167 13.833 -55.5 28.5z" />
    <glyph glyph-name="t" unicode="t" horiz-adv-x="445" 
d="M209 713h-166v9v10h350v-10v-10l1 1h-164v-707h-11h-10v707z" />
    <glyph glyph-name="u" unicode="u" horiz-adv-x="501" 
d="M401 168l0.000976562 -14.999c0 -8.66699 -1.33301 -19.167 -4 -31.5s-6.83398 -25.5 -12.501 -39.5s-14.167 -27 -25.5 -39c-25.333 -27.333 -61 -41 -107 -41c-44.667 0 -79.667 13.667 -105 41c-11.333 12 -19.833 25.333 -25.5 40s-9.5 28.5 -11.5 41.5
s-3 24.167 -3 33.5v17v562h11h11v-563v-1v-21.5c0 -7 0.666992 -13.833 2 -20.5c1.33301 -12 4.5 -24.5 9.5 -37.5s12.5 -25.167 22.5 -36.5c20.667 -22.667 50.334 -34 89.001 -34c39.333 0 70 11.667 92 35c9.33301 10.667 16.5 22.167 21.5 34.5s8.5 24.166 10.5 35.499
c1.33301 6.66699 2.16602 13.167 2.49902 19.5s0.5 12.833 0.5 19.5v1v569h11h11v-569z" />
    <glyph glyph-name="v" unicode="v" horiz-adv-x="468" 
d="M366 729h22l-146 -719h-9h-2h-2h-9l-147 719h22l136 -670z" />
    <glyph glyph-name="w" unicode="w" horiz-adv-x="625" 
d="M318 358l-116 -351h-18l-90 725h21l84 -666l111 337h16l111 -337l82 666h22l-89 -725h-18zM446 7h-1h-1h-1h3zM441 7h-1h-1h-1h3zM190 7h1h1h1h-3zM195 7h1h1h1h-3zM322 403h-1h-1h-1h-1h-1h-1h-1h-1h8z" />
    <glyph glyph-name="x" unicode="x" horiz-adv-x="477" 
d="M258 305l-19 50l-19 -50l-114 -299h-23l117 306l27 71l-132 346h22l121 -327l123 327h22l-133 -346l27 -71l118 -305h-23z" />
    <glyph glyph-name="y" unicode="y" horiz-adv-x="446" 
d="M352 732h23l-140 -354v-371h-11h-11v371l-140 354h23l128 -334z" />
    <glyph glyph-name="z" unicode="z" horiz-adv-x="477" 
d="M363 712h-230v10v11h254v-15l-273 -691h273v-10v-11h-298v17zM387 733v-15v15z" />
    <glyph glyph-name="braceleft" unicode="{" 
 />
    <glyph glyph-name="bar" unicode="|" 
 />
    <glyph glyph-name="braceright" unicode="}" 
 />
    <glyph glyph-name="asciitilde" unicode="~" 
 />
    <glyph glyph-name="uni00A0" unicode="&#xa0;" horiz-adv-x="500" 
 />
    <glyph glyph-name="guillemotright" unicode="&#xbb;" horiz-adv-x="407" 
 />
    <glyph glyph-name="Oacute" unicode="&#xd3;" horiz-adv-x="453" 
d="M367 162l-0.00292969 -11.498c0 -7.66699 -1 -17 -3 -28s-5.33301 -22.833 -10 -35.5s-12 -24.334 -22 -35.001c-5.33301 -6 -12.333 -11.167 -21 -15.5s-18.167 -8 -28.5 -11s-20.833 -5.16699 -31.5 -6.5s-21 -2 -31 -2c-19.333 0 -39.666 2.83301 -60.999 8.5
s-37.333 14.167 -48 25.5c-10 10.667 -17.333 22.667 -22 36s-8 26 -10 38s-2.83301 22.167 -2.5 30.5l0.5 12.5v411c0 29.333 4.5 53.166 13.5 71.499s20.5 32.666 34.5 42.999s29.5 17.333 46.5 21s33.167 5.5 48.5 5.5c8 0 17.333 -0.666992 28 -2
s21.334 -3.66602 32.001 -6.99902s20.834 -7.5 30.501 -12.5s17.5 -10.833 23.5 -17.5c10.667 -11.333 19 -25.333 25 -42s9 -36.667 9 -60zM388.997 579.002c0 54.667 -16.9951 97 -50.9951 127c-6.66699 6 -14.834 11.167 -24.501 15.5s-20 8 -31 11s-22 5.16699 -33 6.5
s-20.833 2 -29.5 2c-9.33301 0 -19.333 -0.833008 -30 -2.5s-21.334 -4 -32.001 -7s-20.834 -6.83301 -30.501 -11.5s-17.834 -10 -24.501 -16c-16.667 -14.667 -28.834 -32.5 -36.501 -53.5s-11.5 -44.833 -11.5 -71.5v-410v-17c0 -9.33301 1 -20.5 3 -33.5
s5.83301 -26.833 11.5 -41.5s14.167 -28 25.5 -40c12.667 -13.333 31 -23.5 55 -30.5s47.333 -10.5 70 -10.5s46.167 3.5 70.5 10.5s43.166 17.167 56.499 30.5c11.333 12 19.833 25 25.5 39s9.83398 27.167 12.501 39.5s4 22.833 4 31.5v16v416zM286.002 909.002l15 -13
l-90 -104l-14 13z" />
    <glyph glyph-name="oacute" unicode="&#xf3;" horiz-adv-x="453" 
d="M367 162l-0.00292969 -11.498c0 -7.66699 -1 -17 -3 -28s-5.33301 -22.833 -10 -35.5s-12 -24.334 -22 -35.001c-5.33301 -6 -12.333 -11.167 -21 -15.5s-18.167 -8 -28.5 -11s-20.833 -5.16699 -31.5 -6.5s-21 -2 -31 -2c-19.333 0 -39.666 2.83301 -60.999 8.5
s-37.333 14.167 -48 25.5c-10 10.667 -17.333 22.667 -22 36s-8 26 -10 38s-2.83301 22.167 -2.5 30.5l0.5 12.5v411c0 29.333 4.5 53.166 13.5 71.499s20.5 32.666 34.5 42.999s29.5 17.333 46.5 21s33.167 5.5 48.5 5.5c8 0 17.333 -0.666992 28 -2
s21.334 -3.66602 32.001 -6.99902s20.834 -7.5 30.501 -12.5s17.5 -10.833 23.5 -17.5c10.667 -11.333 19 -25.333 25 -42s9 -36.667 9 -60zM388.997 579.002c0 54.667 -16.9951 97 -50.9951 127c-6.66699 6 -14.834 11.167 -24.501 15.5s-20 8 -31 11s-22 5.16699 -33 6.5
s-20.833 2 -29.5 2c-9.33301 0 -19.333 -0.833008 -30 -2.5s-21.334 -4 -32.001 -7s-20.834 -6.83301 -30.501 -11.5s-17.834 -10 -24.501 -16c-16.667 -14.667 -28.834 -32.5 -36.501 -53.5s-11.5 -44.833 -11.5 -71.5v-410v-17c0 -9.33301 1 -20.5 3 -33.5
s5.83301 -26.833 11.5 -41.5s14.167 -28 25.5 -40c12.667 -13.333 31 -23.5 55 -30.5s47.333 -10.5 70 -10.5s46.167 3.5 70.5 10.5s43.166 17.167 56.499 30.5c11.333 12 19.833 25 25.5 39s9.83398 27.167 12.501 39.5s4 22.833 4 31.5v16v416zM286.002 909.002l15 -13
l-90 -104l-14 13z" />
    <glyph glyph-name="Aogonek" unicode="&#x104;" horiz-adv-x="423" 
d="M350 -93c-16 0 -29.667 5.66699 -41 17s-17 25 -17 41c0 14 4.33301 26.167 13 36.5s19.667 17.166 33 20.499l-42 203h-174l-47 -219h-22l147 727h17l146 -727h-12c-11.333 0 -21 -4 -29 -12s-12 -17.667 -12 -29s4 -21.166 12 -29.499s17.667 -12.5 29 -12.5h27l3 -16
h-31v0zM290 246l-81 432l-84 -432h165z" />
    <glyph glyph-name="aogonek" unicode="&#x105;" horiz-adv-x="423" 
d="M350 -93c-16 0 -29.667 5.66699 -41 17s-17 25 -17 41c0 14 4.33301 26.167 13 36.5s19.667 17.166 33 20.499l-42 203h-174l-47 -219h-22l147 727h17l146 -727h-12c-11.333 0 -21 -4 -29 -12s-12 -17.667 -12 -29s4 -21.166 12 -29.499s17.667 -12.5 29 -12.5h27l3 -16
h-31v0zM290 246l-81 432l-84 -432h165z" />
    <glyph glyph-name="Cacute" unicode="&#x106;" horiz-adv-x="484" 
d="M368 172l0.000976562 -12.9971c0 -8.66699 -1 -19.334 -3 -32.001s-5.5 -25.834 -10.5 -39.501s-12.5 -25.834 -22.5 -36.501c-22 -23.333 -52.667 -35 -92 -35c-38 0 -67.667 11.667 -89 35c-10 10.667 -17.5 22.667 -22.5 36s-8.33301 25.833 -10 37.5
s-2.5 21.667 -2.5 30v12.5v1v412c0 24 3.5 45 10.5 63s16.333 32.667 28 44s25 19.833 40 25.5s30.167 8.5 45.5 8.5c14.667 0 29.667 -3 45 -9s29.166 -15.167 41.499 -27.5s22.333 -28.166 30 -47.499s11.5 -42 11.5 -68h22c0 28.667 -4.5 55.167 -13.5 79.5
s-21.833 43.5 -38.5 57.5c-29.333 24 -62 36 -98 36c-18 0 -35.5 -3.33301 -52.5 -10s-31.833 -15.667 -44.5 -27c-32 -30 -48 -71.667 -48 -125v-411c0 -2 -0.166992 -7.66699 -0.5 -17s0.5 -20.5 2.5 -33.5s5.83301 -26.833 11.5 -41.5s14.5 -28.334 26.5 -41.001
c24 -27.333 59 -41 105 -41s82 13.667 108 41c11.333 12 19.833 25.667 25.5 41s9.66699 30 12 44s3.5 25.833 3.5 35.5v15.5h-21zM368.001 172.003h21h-21zM316.001 909.003l15 -13l-90 -104l-14 13z" />
    <glyph glyph-name="cacute" unicode="&#x107;" horiz-adv-x="484" 
d="M368 172l0.000976562 -12.9971c0 -8.66699 -1 -19.334 -3 -32.001s-5.5 -25.834 -10.5 -39.501s-12.5 -25.834 -22.5 -36.501c-22 -23.333 -52.667 -35 -92 -35c-38 0 -67.667 11.667 -89 35c-10 10.667 -17.5 22.667 -22.5 36s-8.33301 25.833 -10 37.5
s-2.5 21.667 -2.5 30v12.5v1v412c0 24 3.5 45 10.5 63s16.333 32.667 28 44s25 19.833 40 25.5s30.167 8.5 45.5 8.5c14.667 0 29.667 -3 45 -9s29.166 -15.167 41.499 -27.5s22.333 -28.166 30 -47.499s11.5 -42 11.5 -68h22c0 28.667 -4.5 55.167 -13.5 79.5
s-21.833 43.5 -38.5 57.5c-29.333 24 -62 36 -98 36c-18 0 -35.5 -3.33301 -52.5 -10s-31.833 -15.667 -44.5 -27c-32 -30 -48 -71.667 -48 -125v-411c0 -2 -0.166992 -7.66699 -0.5 -17s0.5 -20.5 2.5 -33.5s5.83301 -26.833 11.5 -41.5s14.5 -28.334 26.5 -41.001
c24 -27.333 59 -41 105 -41s82 13.667 108 41c11.333 12 19.833 25.667 25.5 41s9.66699 30 12 44s3.5 25.833 3.5 35.5v15.5h-21zM368.001 172.003h21h-21zM316.001 909.003l15 -13l-90 -104l-14 13z" />
    <glyph glyph-name="Eogonek" unicode="&#x118;" horiz-adv-x="476" 
d="M101 6v9.99902v706v11h278v-11v-8h-257v-378h201v-10v-9h-201v-292h261v-9v-10c-11.333 0 -21.166 -4.16699 -29.499 -12.5s-12.5 -18.166 -12.5 -29.499s4 -21 12 -29s17.667 -12 29 -12l1 -17c-16.667 0 -30.834 5.66699 -42.501 17s-17.5 25 -17.5 41s6 30 18 42h-240
z" />
    <glyph glyph-name="eogonek" unicode="&#x119;" horiz-adv-x="476" 
d="M101 6v9.99902v706v11h278v-11v-8h-257v-378h201v-10v-9h-201v-292h261v-9v-10c-11.333 0 -21.166 -4.16699 -29.499 -12.5s-12.5 -18.166 -12.5 -29.499s4 -21 12 -29s17.667 -12 29 -12l1 -17c-16.667 0 -30.834 5.66699 -42.501 17s-17.5 25 -17.5 41s6 30 18 42h-240
z" />
    <glyph glyph-name="iogonek" unicode="&#x12f;" horiz-adv-x="407" 
 />
    <glyph glyph-name="dotlessi" unicode="&#x131;" 
 />
    <glyph glyph-name="Lslash" unicode="&#x141;" horiz-adv-x="516" 
d="M49 280l67 63v-327v-10h290v10v9h-268v337l113 103zM49 280l-13 14l36.5 33.5l43.5 39.5v366h11h11v-346l54 50l46 42l13 -14z" />
    <glyph glyph-name="lslash" unicode="&#x142;" horiz-adv-x="516" 
d="M49 280l67 63v-327v-10h290v10v9h-268v337l113 103zM49 280l-13 14l36.5 33.5l43.5 39.5v366h11h11v-346l54 50l46 42l13 -14z" />
    <glyph glyph-name="Nacute" unicode="&#x143;" horiz-adv-x="507" 
d="M412 6h-2h-2h-2h-1h7zM113 6l-11.001 -0.00195312h-11v717v10h18l276 -637c4 -9.33301 6.83301 -16.666 8.5 -21.999s3.16699 -9.66602 4.5 -12.999v672h10h11v-727h-18l-273 632l-8.5 20.5c-4.33301 10.333 -7.16602 18.5 -8.49902 24.5zM105.999 732.998h-1h-1h-1h-1
h-1h-1h-1h7zM325.999 898.998l15 -13l-90 -104l-14 13z" />
    <glyph glyph-name="nacute" unicode="&#x144;" horiz-adv-x="507" 
d="M412 6h-2h-2h-2h-1h7zM113 6l-11.001 -0.00195312h-11v717v10h18l276 -637c4 -9.33301 6.83301 -16.666 8.5 -21.999s3.16699 -9.66602 4.5 -12.999v672h10h11v-727h-18l-273 632l-8.5 20.5c-4.33301 10.333 -7.16602 18.5 -8.49902 24.5zM105.999 732.998h-1h-1h-1h-1
h-1h-1h-1h7zM325.999 898.998l15 -13l-90 -104l-14 13z" />
    <glyph glyph-name="Sacute" unicode="&#x15a;" horiz-adv-x="468" 
d="M129 32c17.333 -14.667 35.8291 -24.1719 55.4961 -28.5049s37.167 -6.5 52.5 -6.5c44 0 80.667 12 110 36c36 30 54 72 54 126c0 57.333 -17.333 107.333 -52 150c-15.333 18.667 -32.333 35.334 -51 50.001s-37.667 28.667 -57 42l-48.5 36
c-15.667 12 -29.5 25.167 -41.5 39.5s-21.667 30 -29 47s-11 36.5 -11 58.5v11c0 7.33301 1 16.166 3 26.499s5.33301 21.5 10 33.5s11.667 23 21 33c21.333 23.333 52.333 35 93 35c20.667 0 38.334 -3 53.001 -9s27 -14.667 37 -26c8.66699 -10 14.834 -21.5 18.501 -34.5
s6.16699 -25.5 7.5 -37.5s1.83301 -22 1.5 -30l-0.5 -12h21c0 0.666992 0.166992 5.5 0.5 14.5s-0.166992 20 -1.5 33s-4.16602 26.667 -8.49902 41s-11.5 27.5 -21.5 39.5c-24 28 -59.667 42 -107 42c-46.667 0 -83 -14 -109 -42
c-11.333 -11.333 -19.666 -23.666 -24.999 -36.999s-9.16602 -25.666 -11.499 -36.999s-3.5 -21.166 -3.5 -29.499v-15.5c0 -43.333 14.667 -82.666 44 -117.999c13.333 -15.333 28.166 -29.166 44.499 -41.499l51.5 -37.5l55 -40.5c18 -13.667 34.167 -29.167 48.5 -46.5
s25.833 -37.166 34.5 -59.499s13 -48.5 13 -78.5c0 -26 -4.16699 -48 -12.5 -66s-19.333 -32.5 -33 -43.5s-29 -19 -46 -24s-34.167 -7.5 -51.5 -7.5c-14 0 -29 1.83301 -45 5.5s-30.833 11 -44.5 22s-25 26.5 -34 46.5s-13.5 46 -13.5 78h-21
c0 -28 4.16699 -54.333 12.5 -79s20.833 -44.334 37.5 -59.001zM315.996 908.995l15 -13l-90 -104l-14 13z" />
    <glyph glyph-name="sacute" unicode="&#x15b;" horiz-adv-x="468" 
d="M129 32c17.333 -14.667 35.8291 -24.1719 55.4961 -28.5049s37.167 -6.5 52.5 -6.5c44 0 80.667 12 110 36c36 30 54 72 54 126c0 57.333 -17.333 107.333 -52 150c-15.333 18.667 -32.333 35.334 -51 50.001s-37.667 28.667 -57 42l-48.5 36
c-15.667 12 -29.5 25.167 -41.5 39.5s-21.667 30 -29 47s-11 36.5 -11 58.5v11c0 7.33301 1 16.166 3 26.499s5.33301 21.5 10 33.5s11.667 23 21 33c21.333 23.333 52.333 35 93 35c20.667 0 38.334 -3 53.001 -9s27 -14.667 37 -26c8.66699 -10 14.834 -21.5 18.501 -34.5
s6.16699 -25.5 7.5 -37.5s1.83301 -22 1.5 -30l-0.5 -12h21c0 0.666992 0.166992 5.5 0.5 14.5s-0.166992 20 -1.5 33s-4.16602 26.667 -8.49902 41s-11.5 27.5 -21.5 39.5c-24 28 -59.667 42 -107 42c-46.667 0 -83 -14 -109 -42
c-11.333 -11.333 -19.666 -23.666 -24.999 -36.999s-9.16602 -25.666 -11.499 -36.999s-3.5 -21.166 -3.5 -29.499v-15.5c0 -43.333 14.667 -82.666 44 -117.999c13.333 -15.333 28.166 -29.166 44.499 -41.499l51.5 -37.5l55 -40.5c18 -13.667 34.167 -29.167 48.5 -46.5
s25.833 -37.166 34.5 -59.499s13 -48.5 13 -78.5c0 -26 -4.16699 -48 -12.5 -66s-19.333 -32.5 -33 -43.5s-29 -19 -46 -24s-34.167 -7.5 -51.5 -7.5c-14 0 -29 1.83301 -45 5.5s-30.833 11 -44.5 22s-25 26.5 -34 46.5s-13.5 46 -13.5 78h-21
c0 -28 4.16699 -54.333 12.5 -79s20.833 -44.334 37.5 -59.001zM315.996 908.995l15 -13l-90 -104l-14 13z" />
    <glyph glyph-name="Zacute" unicode="&#x179;" horiz-adv-x="477" 
d="M363 712h-230v10v11h254v-15l-273 -691h273v-10v-11h-298v17zM387 733v-15v15zM316 899l15 -13l-90 -104l-14 13z" />
    <glyph glyph-name="zacute" unicode="&#x17a;" horiz-adv-x="477" 
d="M363 712h-230v10v11h254v-15l-273 -691h273v-10v-11h-298v17zM387 733v-15v15zM316 899l15 -13l-90 -104l-14 13z" />
    <glyph glyph-name="Zdotaccent" unicode="&#x17b;" horiz-adv-x="477" 
d="M380 342v-9v-10v19zM387 718v15v-15zM380 323l-149 1l-117 -297h273v-10v-11h-298v17l120 301l-119 -1v19h126l147 370h-230v10v11h254v-15l-149 -376h142v-19z" />
    <glyph glyph-name="zdotaccent" unicode="&#x17c;" horiz-adv-x="477" 
d="M380 342v-9v-10v19zM387 718v15v-15zM380 323l-149 1l-117 -297h273v-10v-11h-298v17l120 301l-119 -1v19h126l147 370h-230v10v11h254v-15l-149 -376h142v-19z" />
    <glyph glyph-name="florin" unicode="&#x192;" 
 />
    <glyph glyph-name="circumflex" unicode="&#x2c6;" 
 />
    <glyph glyph-name="caron" unicode="&#x2c7;" 
 />
    <glyph glyph-name="breve" unicode="&#x2d8;" 
 />
    <glyph glyph-name="dotaccent" unicode="&#x2d9;" 
 />
    <glyph glyph-name="ring" unicode="&#x2da;" 
 />
    <glyph glyph-name="ogonek" unicode="&#x2db;" 
 />
    <glyph glyph-name="hungarumlaut" unicode="&#x2dd;" horiz-adv-x="1666" 
 />
    <glyph glyph-name="endash" unicode="&#x2013;" horiz-adv-x="423" 
 />
    <glyph glyph-name="emdash" unicode="&#x2014;" 
 />
    <glyph glyph-name="quoteleft" unicode="&#x2018;" horiz-adv-x="202" 
d="M113 668c-7.33301 -2 -11.333 0.333008 -12 7l-33 114c-2 7.33301 0.333008 11.333 7 12c6 2 10 -0.333008 12 -7l33 -114c1.33301 -7.33301 -1 -11.333 -7 -12z" />
    <glyph glyph-name="quoteright" unicode="&#x2019;" horiz-adv-x="192" 
d="M74 668c-6 0.666992 -8.33301 4.66699 -7 12l33 114c2 6.66699 6 9 12 7c6.66699 -0.666992 9 -4.66699 7 -12l-33 -114c-0.666992 -6.66699 -4.66699 -9 -12 -7z" />
    <glyph glyph-name="quotesinglbase" unicode="&#x201a;" 
 />
    <glyph glyph-name="quotedblleft" unicode="&#x201c;" horiz-adv-x="253" 
d="M174 668c-7.33301 -2 -11.333 0.333008 -12 7l-33 114c-2 7.33301 0.333008 11.333 7 12c6 2 10 -0.333008 12 -7l33 -114c1.33301 -7.33301 -1 -11.333 -7 -12zM113 668c-7.33301 -2 -11.333 0.333008 -12 7l-33 114c-2 7.33301 0.333008 11.333 7 12
c6 2 10 -0.333008 12 -7l33 -114c1.33301 -7.33301 -1 -11.333 -7 -12z" />
    <glyph glyph-name="quotedblright" unicode="&#x201d;" horiz-adv-x="247" 
d="M74 668c-6 0.666992 -8.33301 4.66699 -7 12l33 114c2 6.66699 6 9 12 7c6.66699 -0.666992 9 -4.66699 7 -12l-33 -114c-0.666992 -6.66699 -4.66699 -9 -12 -7zM135 668c-6 0.666992 -8.33301 4.66699 -7 12l33 114c2 6.66699 6 9 12 7
c6.66699 -0.666992 9 -4.66699 7 -12l-33 -114c-0.666992 -6.66699 -4.66699 -9 -12 -7z" />
    <glyph glyph-name="quotedblbase" unicode="&#x201e;" 
 />
    <glyph glyph-name="dagger" unicode="&#x2020;" horiz-adv-x="508" 
 />
    <glyph glyph-name="daggerdbl" unicode="&#x2021;" horiz-adv-x="500" 
 />
    <glyph glyph-name="bullet" unicode="&#x2022;" horiz-adv-x="508" 
 />
    <glyph glyph-name="ellipsis" unicode="&#x2026;" 
 />
    <glyph glyph-name="perthousand" unicode="&#x2030;" 
 />
    <glyph glyph-name="guilsinglleft" unicode="&#x2039;" 
 />
    <glyph glyph-name="fraction" unicode="&#x2044;" horiz-adv-x="500" 
 />
    <glyph glyph-name="Euro" unicode="&#x20ac;" 
 />
    <glyph glyph-name="_158" horiz-adv-x="484" 
 />
    <glyph glyph-name="_164" horiz-adv-x="446" 
 />
    <glyph glyph-name="_172" horiz-adv-x="434" 
 />
    <glyph glyph-name="_176" horiz-adv-x="434" 
 />
    <glyph glyph-name="_178" horiz-adv-x="405" 
 />
    <glyph glyph-name="_179" horiz-adv-x="445" 
 />
    <glyph glyph-name="_28" horiz-adv-x="0" 
 />
    <glyph glyph-name="_30" horiz-adv-x="0" 
 />
    <glyph glyph-name="_40" horiz-adv-x="0" 
 />
    <glyph glyph-name="_41" horiz-adv-x="0" 
 />
    <glyph glyph-name="_42" horiz-adv-x="0" 
 />
    <glyph glyph-name="_43" horiz-adv-x="0" 
 />
    <glyph glyph-name="_54" horiz-adv-x="0" 
 />
    <glyph glyph-name="_55" horiz-adv-x="0" 
 />
    <glyph glyph-name="_56" horiz-adv-x="0" 
 />
    <glyph glyph-name="_57" horiz-adv-x="0" 
 />
    <glyph glyph-name="_58" horiz-adv-x="0" 
 />
    <glyph glyph-name="_61" horiz-adv-x="0" 
 />
    <glyph glyph-name="_70" horiz-adv-x="0" 
 />
    <glyph glyph-name="_102" horiz-adv-x="0" 
 />
    <glyph glyph-name="_103" horiz-adv-x="0" 
 />
    <glyph glyph-name="_104" horiz-adv-x="0" 
 />
    <glyph glyph-name="_105" horiz-adv-x="0" 
 />
    <glyph glyph-name="_106" horiz-adv-x="0" 
 />
    <glyph glyph-name="_107" horiz-adv-x="0" 
 />
    <glyph glyph-name="_108" horiz-adv-x="0" 
 />
    <glyph glyph-name="_109" horiz-adv-x="0" 
 />
    <glyph glyph-name="_111" horiz-adv-x="0" 
 />
    <glyph glyph-name="_112" horiz-adv-x="0" 
 />
    <glyph glyph-name="_113" horiz-adv-x="0" 
 />
    </font>
</defs>
</svg>
